<?xml version="1.0" encoding="UTF-8" standalone="no"?>
<svg
   xmlns:dc="http://purl.org/dc/elements/1.1/"
   xmlns:cc="http://creativecommons.org/ns#"
   xmlns:rdf="http://www.w3.org/1999/02/22-rdf-syntax-ns#"
   xmlns:svg="http://www.w3.org/2000/svg"
   xmlns="http://www.w3.org/2000/svg"
   viewBox="0 0 498.77332 129.18668"
   height="129.18668"
   width="498.77332"
   xml:space="preserve"
   id="svg2"
   version="1.1">
    <title xmlns="http://www.w3.org/2000/svg">Van Moer Logo</title>
    <metadata
     id="metadata8"><rdf:RDF><cc:Work
         rdf:about=""><dc:format>image/svg+xml</dc:format><dc:type
           rdf:resource="http://purl.org/dc/dcmitype/StillImage" /></cc:Work></rdf:RDF></metadata><defs
     id="defs6" /><g
     transform="matrix(1.3333333,0,0,-1.3333333,0,129.18667)"
     id="g10"><g
       transform="scale(0.1)"
       id="g12"><path
         id="path14"
         style="fill:#1d2953;fill-opacity:1;fill-rule:nonzero;stroke:none"
         d="m 218.633,604.355 c 8.769,19.903 124.668,208.915 126.68,204.961 -2.266,4.485 145.273,5.743 147.128,0 C 463.242,875.25 399.563,983.949 372.051,967.172 327.48,943.105 236.242,825.258 220.156,779.734 204.59,752.949 195.852,595.586 216.133,601.766 c 1.008,0.402 1.777,1.234 2.5,2.589" /><path
         id="path16"
         style="fill:#1d2953;fill-opacity:1;fill-rule:nonzero;stroke:none"
         d="M 537.648,581.133 C 528.906,561.23 413.008,372.227 410.996,376.18 c 2.285,-4.5 -145.301,-5.75 -147.168,0 29.231,-65.918 92.91,-174.637 120.442,-157.86 44.558,24.051 135.828,141.934 151.863,187.395 15.566,26.824 24.316,184.215 4.023,178.004 -1.004,-0.399 -1.797,-1.239 -2.508,-2.586" /><path
         id="path18"
         style="fill:#1d2953;fill-opacity:1;fill-rule:nonzero;stroke:none"
         d="m 388.906,751.855 c 19.992,-8.75 209.551,-124.277 205.606,-126.289 4.492,2.278 5.703,-144.882 -0.039,-146.718 66.172,29.113 175.168,92.636 158.351,120.019 -24.133,44.453 -142.344,135.457 -187.98,151.453 -26.875,15.52 -184.727,24.258 -178.535,4.024 0.41,-1.016 1.269,-1.754 2.597,-2.489" /><path
         id="path20"
         style="fill:#1d2953;fill-opacity:1;fill-rule:nonzero;stroke:none"
         d="m 365.645,433.777 c -20,8.731 -209.551,124.289 -205.586,126.282 -4.473,-2.286 -5.743,144.882 0.011,146.726 C 93.9453,677.645 -15.0781,614.16 1.73828,586.719 25.8984,542.285 144.102,451.316 189.719,435.293 c 26.894,-15.508 184.726,-24.258 178.515,-4.016 -0.402,1.008 -1.242,1.789 -2.589,2.5" /><path
         id="path22"
         style="fill:#1d2953;fill-opacity:1;fill-rule:nonzero;stroke:none"
         d="M 378.215,469.031 254.094,592.773 378.203,716.492 502.305,592.773 378.215,469.031" /><path
         id="path24"
         style="fill:#1597dd;fill-opacity:1;fill-rule:nonzero;stroke:none"
         d="m 923.008,766.395 h 115.142 l 60.95,-231.024 63.38,231.024 h 115.16 L 1156.69,419.102 H 1042.03 L 923.008,766.395" /><path
         id="path26"
         style="fill:#1597dd;fill-opacity:1;fill-rule:nonzero;stroke:none"
         d="m 1235.68,419.102 124.83,347.293 h 116.12 l 124.84,-347.293 h -113.71 l -13.56,45.82 h -113.69 l -13.04,-45.82 z m 181.94,242.644 -35.33,-124.461 h 72.09 z" /><path
         id="path28"
         style="fill:#1597dd;fill-opacity:1;fill-rule:nonzero;stroke:none"
         d="m 1871.43,576.836 -4.37,79.09 v 110.469 h 109.35 V 419.102 h -106.94 l -124.33,189.101 4.35,-79.14 V 419.102 h -109.35 v 347.293 h 106.93 l 124.36,-189.559" /><path
         id="path30"
         style="fill:#1597dd;fill-opacity:1;fill-rule:nonzero;stroke:none"
         d="m 2199.92,419.102 v 347.293 h 137.89 l 61.45,-216.59 61.42,216.59 h 137.88 V 419.102 h -102.57 v 106.132 l 1.43,54.004 5.84,62.696 h -0.99 L 2438.9,419.102 h -79.33 l -63.37,222.832 h -0.96 l 4.8,-51.106 2.42,-54.043 V 419.102 h -102.54" /><path
         id="path32"
         style="fill:#1597dd;fill-opacity:1;fill-rule:nonzero;stroke:none"
         d="m 3011.74,594.656 c 0,-118.152 -79.84,-184.746 -182.89,-184.746 -109.34,0 -182.4,67.551 -182.4,185.735 0,109.011 74.04,179.929 182.4,179.929 124.35,0 182.89,-89.258 182.89,-180.918 m -251.08,0 c 0,-44.324 13.52,-99.832 68.19,-99.832 49.35,0 68.69,42.461 68.69,99.832 0,47.297 -19.34,97.461 -69.67,96.02 -51.76,0 -67.21,-52.102 -67.21,-96.02" /><path
         id="path34"
         style="fill:#1597dd;fill-opacity:1;fill-rule:nonzero;stroke:none"
         d="m 3067.38,419.102 v 347.293 h 283.99 v -81.043 h -169.82 v -49.661 h 143.69 v -81.043 h -143.69 v -54.531 h 176.6 v -81.015 h -290.77" /><path
         id="path36"
         style="fill:#1597dd;fill-opacity:1;fill-rule:nonzero;stroke:none"
         d="M 3523.6,540.176 V 419.102 h -114.17 v 347.293 h 164.5 c 116.09,0 154.27,-31.368 154.27,-98.875 0,-40.051 -17.86,-73.821 -58.51,-84.891 36.78,-13.527 59.06,-22.18 59.06,-92.121 0,-45.352 -1.46,-60.801 12.06,-60.801 V 419.102 H 3625.2 c -2.9,7.714 -5.81,29.902 -5.81,60.761 0,45.332 -7.75,60.313 -60.96,60.313 z m 0,76.211 h 44.99 c 35.32,0 54.18,8.672 54.18,32.812 0,24.59 -19.36,36.153 -45.94,36.153 h -53.23 v -68.965" /><path
         id="path38"
         style="fill:#1597dd;fill-opacity:1;fill-rule:nonzero;stroke:none"
         d="m 2502.03,304.98 h 31.54 V 99.6875 h 116.66 v -27.793 h -148.2 V 304.98" /><path
         id="path40"
         style="fill:#1597dd;fill-opacity:1;fill-rule:nonzero;stroke:none"
         d="m 2783.68,111.934 c 6.96,14.316 10.42,30.254 10.42,47.793 0,15.839 -2.5,28.75 -7.49,38.671 -7.96,15.625 -21.62,23.457 -41.02,23.457 -17.22,0 -29.74,-6.671 -37.59,-19.992 -7.8,-13.308 -11.72,-29.343 -11.72,-48.144 0,-18.094 3.92,-33.164 11.72,-45.184 7.85,-12.0623 20.25,-18.0858 37.27,-18.0858 18.69,0 31.49,7.168 38.41,21.4848 z m 17.72,112.937 c 14.97,-14.598 22.48,-36.043 22.48,-64.375 0,-27.351 -6.63,-49.988 -19.81,-67.8397 -13.2,-17.8711 -33.7,-26.7774 -61.48,-26.7774 -23.15,0 -41.54,7.8789 -55.18,23.6914 -13.62,15.8007 -20.43,37.0117 -20.43,63.6527 0,28.554 7.18,51.25 21.55,68.164 14.36,16.914 33.63,25.371 57.85,25.371 21.67,0 40.01,-7.305 55.02,-21.887" /><path
         id="path42"
         style="fill:#1597dd;fill-opacity:1;fill-rule:nonzero;stroke:none"
         d="m 2956.6,204.395 c -8.64,10.136 -19.59,15.214 -32.92,15.214 -19.97,0 -33.63,-9.394 -40.95,-28.242 -3.9,-10.039 -5.84,-23.222 -5.84,-39.523 0,-19.129 3.83,-33.68 11.58,-43.699 7.7,-10.0005 18.08,-14.9927 31.08,-14.9927 20.39,0 34.74,9.2497 43,27.7657 4.64,10.488 6.93,22.676 6.93,36.66 0,21.055 -4.27,36.641 -12.88,46.817 z m -3.5,30.625 c 5.36,-3.711 10.83,-9.094 16.38,-16.192 v 21.426 h 26.3 V 85.6836 c 0,-21.582 -3.18,-38.5742 -9.47,-51.0938 C 2974.52,11.543 2952.27,0 2919.55,0 c -18.17,0 -33.46,4.14063 -45.89,12.3242 -12.41,8.1836 -19.36,21.0352 -20.83,38.4688 h 28.96 c 1.38,-7.6289 4.08,-13.4883 8.18,-17.6094 6.42,-6.3398 16.51,-9.5508 30.27,-9.5508 21.7,0 35.89,7.7539 42.65,23.1836 3.97,9.1016 5.78,25.332 5.5,48.7109 -5.67,-8.664 -12.49,-15.0976 -20.51,-19.3554 -7.99,-4.2305 -18.55,-6.3086 -31.69,-6.3086 -18.28,0 -34.28,6.5039 -48.01,19.5625 -13.7,13.0742 -20.57,34.6762 -20.57,64.8322 0,28.437 6.93,50.644 20.72,66.64 13.85,15.957 30.53,23.946 50.09,23.946 13.22,0 24.79,-3.281 34.68,-9.824" /><path
         id="path44"
         style="fill:#1597dd;fill-opacity:1;fill-rule:nonzero;stroke:none"
         d="m 3039.15,241.035 h 28.97 V 71.8945 h -28.97 z m 0,63.945 h 28.97 v -32.363 h -28.97 v 32.363" /><path
         id="path46"
         style="fill:#1597dd;fill-opacity:1;fill-rule:nonzero;stroke:none"
         d="m 3128.13,125.195 c 0.86,-9.504 3.25,-16.808 7.24,-21.867 7.35,-9.2069 20.02,-13.8241 38.15,-13.8241 10.75,0 20.23,2.3008 28.42,6.9219 8.2,4.5902 12.28,11.6992 12.28,21.3472 0,7.278 -3.27,12.832 -9.8,16.661 -4.17,2.312 -12.44,4.98 -24.76,8.066 l -23.02,5.703 c -14.69,3.594 -25.51,7.637 -32.51,12.09 -12.42,7.695 -18.66,18.398 -18.66,32.02 0,16.105 5.88,29.113 17.58,39.035 11.71,9.961 27.46,14.922 47.24,14.922 25.87,0 44.54,-7.493 56,-22.54 7.14,-9.531 10.63,-19.765 10.41,-30.761 h -26.9 c -0.54,6.406 -2.88,12.246 -6.98,17.539 -6.7,7.422 -18.3,11.152 -34.84,11.152 -11.03,0 -19.35,-2.051 -25.03,-6.152 -5.66,-4.102 -8.5,-9.531 -8.5,-16.289 0,-7.356 3.72,-13.262 11.18,-17.715 4.29,-2.598 10.63,-4.922 19.03,-6.945 l 19.22,-4.618 c 20.83,-4.98 34.79,-9.765 41.89,-14.414 11.1,-7.324 16.64,-18.781 16.64,-34.453 0,-15.117 -5.81,-28.1834 -17.41,-39.1795 -11.57,-11.0078 -29.25,-16.5039 -52.96,-16.5039 -25.55,0 -43.61,5.7032 -54.25,17.2266 -10.62,11.4648 -16.32,25.6528 -17.08,42.5778 h 27.42" /><path
         id="path48"
         style="fill:#1597dd;fill-opacity:1;fill-rule:nonzero;stroke:none"
         d="m 3278.99,289.277 h 28.79 v -47.441 h 27.07 v -23.32 h -27.07 V 107.598 c 0,-5.926 2.01,-9.9027 6.02,-11.8949 2.22,-1.1523 5.89,-1.7773 11.1,-1.7773 1.33,0 2.83,0.0781 4.42,0.125 1.59,0.0703 3.43,0.2461 5.53,0.5586 V 71.8945 c -3.28,-0.957 -6.68,-1.6406 -10.22,-2.0312 -3.52,-0.4375 -7.34,-0.6641 -11.46,-0.6641 -13.34,0 -22.34,3.3985 -27.08,10.2539 -4.72,6.8164 -7.1,15.6524 -7.1,26.5549 V 218.516 H 3256 v 23.32 h 22.99 v 47.441" /><path
         id="path50"
         style="fill:#1597dd;fill-opacity:1;fill-rule:nonzero;stroke:none"
         d="m 3363.34,241.035 h 28.99 V 71.8945 h -28.99 z m 0,63.945 h 28.99 v -32.363 h -28.99 v 32.363" /><path
         id="path52"
         style="fill:#1597dd;fill-opacity:1;fill-rule:nonzero;stroke:none"
         d="m 3547.35,232.781 c 11.99,-9.285 19.19,-25.34 21.6,-48.074 h -27.69 c -1.68,10.488 -5.54,19.199 -11.55,26.102 -6.01,6.925 -15.67,10.402 -28.96,10.402 -18.19,0 -31.13,-8.875 -38.96,-26.633 -5.05,-11.492 -7.59,-25.73 -7.59,-42.625 0,-17.012 3.6,-31.308 10.76,-42.949 7.18,-11.6407 18.47,-17.422 33.91,-17.422 11.78,0 21.14,3.586 28.06,10.801 6.92,7.226 11.7,17.109 14.33,29.668 h 27.69 c -3.16,-22.539 -11.07,-39.0237 -23.7,-49.4338 -12.7,-10.4414 -28.89,-15.6445 -48.63,-15.6445 -22.15,0 -39.83,8.125 -53.01,24.3359 -13.2,16.2694 -19.8,36.5504 -19.8,60.8794 0,29.816 7.25,53.054 21.67,69.667 14.48,16.583 32.86,24.903 55.27,24.903 19.09,0 34.64,-4.68 46.6,-13.977" /><path
         id="path54"
         style="fill:#1597dd;fill-opacity:1;fill-rule:nonzero;stroke:none"
         d="m 3614.4,125.195 c 0.85,-9.504 3.28,-16.808 7.26,-21.867 7.34,-9.2069 20.06,-13.8241 38.12,-13.8241 10.78,0 20.27,2.3008 28.45,6.9219 8.2,4.5902 12.28,11.6992 12.28,21.3472 0,7.278 -3.28,12.832 -9.82,16.661 -4.19,2.312 -12.42,4.98 -24.75,8.066 l -23.02,5.703 c -14.68,3.594 -25.52,7.637 -32.47,12.09 -12.46,7.695 -18.68,18.398 -18.68,32.02 0,16.105 5.84,29.113 17.57,39.035 11.7,9.961 27.44,14.922 47.23,14.922 25.86,0 44.53,-7.493 55.97,-22.54 7.17,-9.531 10.67,-19.765 10.46,-30.761 h -26.95 c -0.51,6.406 -2.85,12.246 -6.93,17.539 -6.73,7.422 -18.31,11.152 -34.84,11.152 -11.03,0 -19.38,-2.051 -25.05,-6.152 -5.66,-4.102 -8.49,-9.531 -8.49,-16.289 0,-7.356 3.72,-13.262 11.17,-17.715 4.31,-2.598 10.62,-4.922 19.02,-6.945 l 19.2,-4.618 c 20.87,-4.98 34.85,-9.765 41.94,-14.414 11.1,-7.324 16.64,-18.781 16.64,-34.453 0,-15.117 -5.81,-28.1834 -17.39,-39.1795 -11.62,-11.0078 -29.25,-16.5039 -52.98,-16.5039 -25.55,0 -43.63,5.7032 -54.25,17.2266 -10.63,11.4648 -16.33,25.6528 -17.06,42.5778 h 27.37" /></g></g></svg>